<svg xmlns="http://www.w3.org/2000/svg" xmlns:xlink="http://www.w3.org/1999/xlink" width="269.7" height="165" viewBox="0 0 269.7 165">
  <defs>
    <linearGradient id="linear-gradient" x1="0.803" y1="-0.002" x2="0.067" y2="0.905" gradientUnits="objectBoundingBox">
      <stop offset="0" stop-color="#7fb0de"/>
      <stop offset="0.206" stop-color="#7cacdb"/>
      <stop offset="0.416" stop-color="#73a0d4"/>
      <stop offset="0.628" stop-color="#638bc7"/>
      <stop offset="0.84" stop-color="#4e6fb5"/>
      <stop offset="1" stop-color="#3a54a5"/>
    </linearGradient>
    <linearGradient id="linear-gradient-2" x1="0.151" y1="0.202" x2="0.743" y2="0.674" xlink:href="#linear-gradient"/>
  </defs>
  <g id="Group_60" data-name="Group 60" transform="translate(-2879.886 121.7)">
    <g id="Group_55" data-name="Group 55" transform="translate(1247.986 31.9)">
      <path id="Path_68" data-name="Path 68" d="M1901.6-153.6l-5.3,7a.1.1,0,0,1-.1.1L1781.3,4.3l-5.4,7.1h-60.2l5.3-7.1L1777.2-71l56.2-75.3c2.9-3.9,9.3-7.1,14.2-7.1h54Z" fill="#1e2957"/>
    </g>
    <g id="Group_56" data-name="Group 56" transform="translate(1247.986 31.9)">
      <path id="Path_69" data-name="Path 69" d="M1817.8-153.6l-5.3,7a.1.1,0,0,1-.1.1L1729.3-37.4c-3,3.9-7.8,10.3-10.8,14.2l-9.8,12.9-9.8,12.9-5.4,7.1-5.4-7.1-9.8-12.9-9.8-12.9a.1.1,0,0,0-.1-.1l-5.3-7,5.3-7.1,19.8-26.5a2.178,2.178,0,0,0,.5-.8c.4-.5.8-1.1,1.3-1.7l7-9.4,1.3-1.7,26-34.8,25.4-34.1c2.9-3.9,9.3-7.1,14.2-7.1h53.9Z" fill="url(#linear-gradient)"/>
    </g>
    <g id="Group_57" data-name="Group 57" transform="translate(1247.986 31.9)">
      <path id="Path_70" data-name="Path 70" d="M1693.5-71.1l-5.3,7.1-9.9,13.2-9.9,13.3c-.1.1-.1.2-.2.2l-5.2,6.9-5.4-7.1-2.4-3.1L1637.3-64c-.1-.1-.1-.1-.1-.2l-5.3-6.9,5.3-7a.1.1,0,0,1,.1-.1l2.4-3.1,17.9-23.5c3-3.9,7.8-3.9,10.7.1l9.9,13.3,9.9,13.2Z" fill="url(#linear-gradient-2)"/>
    </g>
  </g>
</svg>
