<svg xmlns="http://www.w3.org/2000/svg" xmlns:xlink="http://www.w3.org/1999/xlink" width="593.6" height="165.101" viewBox="0 0 593.6 165.101">
  <defs>
    <linearGradient id="linear-gradient" x1="0.803" y1="-0.002" x2="0.067" y2="0.904" gradientUnits="objectBoundingBox">
      <stop offset="0" stop-color="#7fb0de"/>
      <stop offset="0.206" stop-color="#7cacdb"/>
      <stop offset="0.416" stop-color="#73a0d4"/>
      <stop offset="0.628" stop-color="#638bc7"/>
      <stop offset="0.84" stop-color="#4e6fb5"/>
      <stop offset="1" stop-color="#3a54a5"/>
    </linearGradient>
    <linearGradient id="linear-gradient-2" x1="0.153" y1="0.203" x2="0.744" y2="0.674" xlink:href="#linear-gradient"/>
  </defs>
  <g id="Group_59" data-name="Group 59" transform="translate(-1565.686 690)">
    <g id="Group_49" data-name="Group 49" transform="translate(1247.986 31.9)">
      <path id="Path_48" data-name="Path 48" d="M587.5-721.9l-5.3,7a.1.1,0,0,1-.1.1L467.2-564.1l-5.4,7.1H401.6l5.3-7.1,56.2-75.3,56.2-75.3c2.9-3.9,9.3-7.1,14.2-7.1h54Z" fill="#1e2957"/>
    </g>
    <g id="Group_50" data-name="Group 50" transform="translate(1247.986 31.9)">
      <path id="Path_49" data-name="Path 49" d="M503.7-721.9l-5.3,7a.1.1,0,0,1-.1.1L415.2-605.7c-3,3.9-7.8,10.3-10.8,14.2l-9.8,12.9-9.8,12.9-5.4,7.1-5.4-7.1-9.8-12.9-9.8-12.9a.1.1,0,0,0-.1-.1l-5.3-7,5.3-7.1,19.8-26.5a2.177,2.177,0,0,0,.5-.8c.4-.5.8-1.1,1.3-1.7l7-9.4,1.3-1.7,26-34.8,25.4-34.1c2.9-3.9,9.3-7.1,14.2-7.1h53.9Z" fill="url(#linear-gradient)"/>
    </g>
    <g id="Group_51" data-name="Group 51" transform="translate(1247.986 31.9)">
      <path id="Path_50" data-name="Path 50" d="M379.3-639.4l-5.3,7.1-9.9,13.2-9.9,13.3c-.1.1-.1.2-.2.2l-5.2,6.9-5.4-7.1-2.4-3.1-17.9-23.5c-.1-.1-.1-.1-.1-.2l-5.3-6.9,5.3-7a.1.1,0,0,1,.1-.1l2.4-3.1,17.9-23.5c3-3.9,7.8-3.9,10.7.1l9.9,13.3,9.9,13.2Z" fill="url(#linear-gradient-2)"/>
    </g>
    <g id="Group_53" data-name="Group 53" transform="translate(1247.986 31.9)">
      <path id="Path_51" data-name="Path 51" d="M687.8-598.9H675.3v-54.9h12.5v22.1h24.3v-22.1h12.6v54.9H712.3c0-.7-.1-1.5-.1-2.2v-17.7c0-1.4-.5-1.9-1.9-1.8-6.9.1-13.7.1-20.6,0-1.6,0-1.9.6-1.9,2,.1,5.8,0,11.5,0,17.3A9.594,9.594,0,0,1,687.8-598.9Z" fill="#1b2856"/>
      <path id="Path_52" data-name="Path 52" d="M817.6-619c-2.6,13.2-16.4,22.5-30.6,21.4-16.4-1.3-28.2-13.8-28-29.1.2-15,12.3-27.4,27.8-28.5,14.9-1,28.9,8.7,30.8,21.5h-12c-.4,0-1-.6-1.2-1-3.6-8.1-13.2-11.2-21-8.6a18.03,18.03,0,0,0-11.5,20c1.6,9,8.8,15.2,17.6,15,6.6-.2,11.7-3.1,14.7-9.2a2.437,2.437,0,0,1,1.7-1.3C809.7-619.1,813.5-619,817.6-619Z" fill="#1b2856"/>
      <path id="Path_53" data-name="Path 53" d="M872.6-653.9h38.5v10.7c-.7,0-1.5.1-2.2.1-7.1,0-14.1.1-21.2-.1-2.2,0-2.6.7-2.5,2.6.2,2.8,0,5.7,0,8.8h22.1v10.9h-22v11h26v10.8H872.4C872.6-617.2,872.6-635.4,872.6-653.9Z" fill="#1b2856"/>
      <path id="Path_54" data-name="Path 54" d="M639.8-620.7v10.9H666V-599H627.2v-54.9h38.5v10.8H639.9v11.4H662v11Z" fill="#1b2856"/>
      <path id="Path_55" data-name="Path 55" d="M562.6-654H576a2.744,2.744,0,0,1,1.8,1c7.6,10.5,15.2,21,22.7,31.6.8,1.2,1.3,2.6,2.3,4v-36.5h12.4v55.1H602.6a2.043,2.043,0,0,1-1.3-.8c-12.9-17.8-25.7-35.7-38.5-53.5A2.043,2.043,0,0,0,562.6-654Z" fill="#1b2856"/>
      <path id="Path_56" data-name="Path 56" d="M828.1-653.9h12.5v35.5c0,2.8.2,5.6.3,8.5,2.8.1,5.7.2,8.5.2h13.4c.2,0,.4.1.8.1V-599H828.1Z" fill="#1b2856"/>
      <path id="Path_57" data-name="Path 57" d="M749.2-653.9v55H736.5v-55Z" fill="#1b2856"/>
      <path id="Path_58" data-name="Path 58" d="M891.9-577.5v19.8h-3.1v-26.2c1.7-.6,2.9-.1,4,1.4,4.4,5.6,8.8,11.2,13.3,16.7.5.6.9,1.1,1.8,2.1V-584h3.3v26.2a3.379,3.379,0,0,1-4-1.4c-4.4-5.8-9-11.4-13.5-17.1a17.387,17.387,0,0,0-1.3-1.5A1.332,1.332,0,0,1,891.9-577.5Z" fill="#1b2856"/>
      <path id="Path_59" data-name="Path 59" d="M629.1-557.7h-3.2v-26.2a3.216,3.216,0,0,1,4,1.3c4.4,5.7,8.9,11.3,13.4,16.9a20.417,20.417,0,0,0,1.7,2V-584h3.2v26.1a3.021,3.021,0,0,1-3.9-1.3c-4.4-5.7-9-11.4-13.6-17.1-.4-.5-.9-1-1.6-1.9C629.1-571,629.1-564.4,629.1-557.7Z" fill="#1b2856"/>
      <path id="Path_60" data-name="Path 60" d="M860.8-557.1c-8,0-14.3-6.1-14.3-13.8a14.045,14.045,0,0,1,14.2-13.8A14.088,14.088,0,0,1,875-570.8,13.962,13.962,0,0,1,860.8-557.1ZM849.9-571a10.822,10.822,0,0,0,10.9,11,10.777,10.777,0,0,0,10.8-10.9,10.822,10.822,0,0,0-10.9-11A10.84,10.84,0,0,0,849.9-571Z" fill="#1b2856"/>
      <path id="Path_61" data-name="Path 61" d="M661.8-565.1h2.9c1.5,4.5,5.5,6.5,11.7,4.4a4.113,4.113,0,0,0,2.9-4,3.85,3.85,0,0,0-2.7-4.1,53.463,53.463,0,0,0-6.9-1.7,28.641,28.641,0,0,1-2.8-.7c-2.3-.8-4.1-2.1-4.4-4.8-.3-3,.5-5.6,3.3-7.1a13.04,13.04,0,0,1,11.4-.7,6.893,6.893,0,0,1,4.4,6.4c-1.7.3-3.2.7-3.9-1.7a3.291,3.291,0,0,0-2.3-2,22.763,22.763,0,0,0-6.9.1c-1.8.3-2.6,2.1-2.6,3.9a3.424,3.424,0,0,0,2.8,3.4c1.7.5,3.4.7,5.1,1.2a38.1,38.1,0,0,1,4.5,1.3,6.37,6.37,0,0,1,4.5,6.4,6.616,6.616,0,0,1-4.3,6.6c-4.4,1.8-8.8,2.1-13.1-.5A7.3,7.3,0,0,1,661.8-565.1Z" fill="#1b2856"/>
      <path id="Path_62" data-name="Path 62" d="M785-576a3.541,3.541,0,0,1-4.4-1.7,10.505,10.505,0,0,0-12-3.5,10.649,10.649,0,0,0-7.2,10.7,10.741,10.741,0,0,0,7.7,10.1,10.725,10.725,0,0,0,11.9-4.1c1.2-1.7,1.2-1.7,3.9-1.4-.6,4.8-7,8.9-13.5,8.7a14.006,14.006,0,0,1-13.5-13.2c-.4-7.1,5-13.2,12.6-14.3C776.8-585.6,783.8-581.4,785-576Z" fill="#1b2856"/>
      <path id="Path_63" data-name="Path 63" d="M696.3-584c4.4,0,8.5-.3,12.6.1,4.2.3,7.2,4.4,7,8.8a8.141,8.141,0,0,1-7.8,8.1c-2.7.1-5.4,0-8.4,0v9.2h-3.4C696.3-566.5,696.3-575.1,696.3-584Zm3.4,14.2a74.479,74.479,0,0,0,8.2-.1,5.483,5.483,0,0,0,4.7-5.7c-.1-2.8-2-5.3-4.7-5.5s-5.4,0-8.2,0Z" fill="#1b2856"/>
      <path id="Path_64" data-name="Path 64" d="M746.8-560.6v2.9H729.4a11.022,11.022,0,0,1-.2-1.8v-22.6c0-1.6.5-2.1,2.1-2.1,5.1.1,10.2,0,15.4,0v2.8H732.8v9h12v3h-12v8.8Z" fill="#1b2856"/>
      <path id="Path_65" data-name="Path 65" d="M808.5-557.6h-3.3v-23.5h-8.4v-2.8h20v2.7h-8.3Z" fill="#1b2856"/>
      <path id="Path_66" data-name="Path 66" d="M610.6-557.7h-3.3v-26.6h3.3Z" fill="#1b2856"/>
      <path id="Path_67" data-name="Path 67" d="M829.4-584.3h3.3v26.6h-3.3Z" fill="#1b2856"/>
    </g>
  </g>
</svg>
