<svg xmlns="http://www.w3.org/2000/svg" xmlns:xlink="http://www.w3.org/1999/xlink" width="348.7" height="297.901" viewBox="0 0 348.7 297.901">
  <defs>
    <linearGradient id="linear-gradient" x1="0.803" y1="-0.002" x2="0.067" y2="0.904" gradientUnits="objectBoundingBox">
      <stop offset="0" stop-color="#7fb0de"/>
      <stop offset="0.206" stop-color="#7cacdb"/>
      <stop offset="0.416" stop-color="#73a0d4"/>
      <stop offset="0.628" stop-color="#638bc7"/>
      <stop offset="0.84" stop-color="#4e6fb5"/>
      <stop offset="1" stop-color="#3a54a5"/>
    </linearGradient>
    <linearGradient id="linear-gradient-2" x1="0.151" y1="0.202" x2="0.744" y2="0.673" xlink:href="#linear-gradient"/>
  </defs>
  <g id="Group_58" data-name="Group 58" transform="translate(-1260.786 -47.6)">
    <g id="Group_1" data-name="Group 1" transform="translate(1247.986 31.9)">
      <path id="Path_1" data-name="Path 1" d="M346.7,15.7l-5.3,7a.1.1,0,0,1-.1.1L226.4,173.5l-5.4,7.1H160.8l5.3-7.1,56.2-75.3,56.2-75.3c2.9-3.9,9.3-7.1,14.2-7.1h54Z" fill="#1e2957"/>
    </g>
    <g id="Group_2" data-name="Group 2" transform="translate(1247.986 31.9)">
      <path id="Path_2" data-name="Path 2" d="M262.9,15.7l-5.3,7a.1.1,0,0,1-.1.1L174.4,131.9c-3,3.9-7.8,10.3-10.8,14.2L153.8,159,144,171.9l-5.4,7.1-5.4-7.1L123.4,159l-9.8-12.9a.1.1,0,0,0-.1-.1l-5.3-7,5.3-7.1,19.8-26.5a2.177,2.177,0,0,0,.5-.8c.4-.5.8-1.1,1.3-1.7l7-9.4,1.3-1.7,26-34.8,25.4-34.1c2.9-3.9,9.3-7.1,14.2-7.1h53.9Z" fill="url(#linear-gradient)"/>
    </g>
    <g id="Group_3" data-name="Group 3" transform="translate(1247.986 31.9)">
      <path id="Path_3" data-name="Path 3" d="M138.5,98.2l-5.3,7.1-9.9,13.2-9.9,13.3c-.1.1-.1.2-.2.2l-5.2,6.9-5.4-7.1-2.4-3.1L82.3,105.2c-.1-.1-.1-.1-.1-.2L77,98.2l5.3-7a.1.1,0,0,1,.1-.1L84.8,88l17.9-23.5c3-3.9,7.8-3.9,10.7.1l9.9,13.3,9.9,13.2Z" fill="url(#linear-gradient-2)"/>
    </g>
    <g id="Group_47" data-name="Group 47" transform="translate(1247.986 31.9)">
      <path id="Path_31" data-name="Path 31" d="M138,271.5H125.5V216.6H138v22.1h24.3V216.6h12.6v54.9H162.5c0-.7-.1-1.5-.1-2.2V251.6c0-1.4-.5-1.9-1.9-1.8-6.9.1-13.7.1-20.6,0-1.6,0-1.9.6-1.9,2,.1,5.8,0,11.5,0,17.3A9.6,9.6,0,0,1,138,271.5Z" fill="#1b2856"/>
      <path id="Path_32" data-name="Path 32" d="M267.8,251.4c-2.6,13.2-16.4,22.5-30.6,21.4-16.4-1.3-28.2-13.8-28-29.1.2-15,12.3-27.4,27.8-28.5,14.9-1,28.9,8.7,30.8,21.5h-12c-.4,0-1-.6-1.2-1-3.6-8.1-13.2-11.2-21-8.6a18.03,18.03,0,0,0-11.5,20c1.6,9,8.8,15.2,17.6,15,6.6-.2,11.7-3.1,14.7-9.2a2.437,2.437,0,0,1,1.7-1.3C259.9,251.3,263.7,251.4,267.8,251.4Z" fill="#1b2856"/>
      <path id="Path_33" data-name="Path 33" d="M322.8,216.5h38.5v10.7c-.7,0-1.5.1-2.2.1-7.1,0-14.1.1-21.2-.1-2.2,0-2.6.7-2.5,2.6.2,2.8,0,5.7,0,8.8h22.1v10.9h-22v11h26v10.8H322.6C322.8,253.2,322.8,235,322.8,216.5Z" fill="#1b2856"/>
      <path id="Path_34" data-name="Path 34" d="M90,249.7v10.9h26.2v10.8H77.4V216.5h38.5v10.8H90.1v11.4h22.1v11Z" fill="#1b2856"/>
      <path id="Path_35" data-name="Path 35" d="M12.8,216.4H26.2a2.744,2.744,0,0,1,1.8,1c7.6,10.5,15.2,21,22.7,31.6.8,1.2,1.3,2.6,2.3,4V216.5H65.4v55.1H52.8a2.043,2.043,0,0,1-1.3-.8C38.6,253,25.8,235.1,13,217.3A2.042,2.042,0,0,0,12.8,216.4Z" fill="#1b2856"/>
      <path id="Path_36" data-name="Path 36" d="M278.3,216.5h12.5V252c0,2.8.2,5.6.3,8.5,2.8.1,5.7.2,8.5.2H313c.2,0,.4.1.8.1v10.6H278.3C278.3,253.2,278.3,235,278.3,216.5Z" fill="#1b2856"/>
      <path id="Path_37" data-name="Path 37" d="M199.4,216.5v55H186.7v-55Z" fill="#1b2856"/>
      <path id="Path_38" data-name="Path 38" d="M342.1,292.9v19.8H339V286.5c1.7-.6,2.9-.1,4,1.4,4.4,5.6,8.8,11.2,13.3,16.7.5.6.9,1.1,1.8,2.1V286.4h3.3v26.2a3.379,3.379,0,0,1-4-1.4c-4.4-5.8-9-11.4-13.5-17.1a17.382,17.382,0,0,0-1.3-1.5C342.4,292.8,342.3,292.9,342.1,292.9Z" fill="#1b2856"/>
      <path id="Path_39" data-name="Path 39" d="M79.3,312.7H76.1V286.5a3.216,3.216,0,0,1,4,1.3c4.4,5.7,8.9,11.3,13.4,16.9a20.405,20.405,0,0,0,1.7,2V286.4h3.2v26.1a3.021,3.021,0,0,1-3.9-1.3c-4.4-5.7-9-11.4-13.6-17.1-.4-.5-.9-1-1.6-1.9Z" fill="#1b2856"/>
      <path id="Path_40" data-name="Path 40" d="M311,313.3c-8,0-14.3-6.1-14.3-13.8A14.259,14.259,0,1,1,311,313.3Zm-10.9-13.9a10.851,10.851,0,1,0,10.8-10.9A10.822,10.822,0,0,0,300.1,299.4Z" fill="#1b2856"/>
      <path id="Path_41" data-name="Path 41" d="M112,305.3h2.9c1.5,4.5,5.5,6.5,11.7,4.4a4.113,4.113,0,0,0,2.9-4,3.85,3.85,0,0,0-2.7-4.1,53.464,53.464,0,0,0-6.9-1.7,28.637,28.637,0,0,1-2.8-.7c-2.3-.8-4.1-2.1-4.4-4.8-.3-3,.5-5.6,3.3-7.1a13.04,13.04,0,0,1,11.4-.7,6.893,6.893,0,0,1,4.4,6.4c-1.7.3-3.2.7-3.9-1.7a3.291,3.291,0,0,0-2.3-2,22.762,22.762,0,0,0-6.9.1c-1.8.3-2.6,2.1-2.6,3.9a3.424,3.424,0,0,0,2.8,3.4c1.7.5,3.4.7,5.1,1.2a38.1,38.1,0,0,1,4.5,1.3,6.37,6.37,0,0,1,4.5,6.4,6.616,6.616,0,0,1-4.3,6.6c-4.4,1.8-8.8,2.1-13.1-.5A7.3,7.3,0,0,1,112,305.3Z" fill="#1b2856"/>
      <path id="Path_42" data-name="Path 42" d="M235.2,294.4a3.541,3.541,0,0,1-4.4-1.7,10.505,10.505,0,0,0-12-3.5,10.913,10.913,0,1,0,12.4,16.7c1.2-1.7,1.2-1.7,3.9-1.4-.6,4.8-7,8.9-13.5,8.7A14.006,14.006,0,0,1,208.1,300c-.4-7.1,5-13.2,12.6-14.3C227,284.8,234,289,235.2,294.4Z" fill="#1b2856"/>
      <path id="Path_43" data-name="Path 43" d="M146.5,286.4c4.4,0,8.5-.3,12.6.1,4.2.3,7.2,4.4,7,8.8a8.141,8.141,0,0,1-7.8,8.1c-2.7.1-5.4,0-8.4,0v9.2h-3.4C146.5,304,146.5,295.3,146.5,286.4Zm3.4,14.2a74.471,74.471,0,0,0,8.2-.1,5.483,5.483,0,0,0,4.7-5.7c-.1-2.8-2-5.3-4.7-5.5s-5.4,0-8.2,0Z" fill="#1b2856"/>
      <path id="Path_44" data-name="Path 44" d="M197,309.9v2.9H179.6a11.019,11.019,0,0,1-.2-1.8V288.4c0-1.6.5-2.1,2.1-2.1,5.1.1,10.2,0,15.4,0v2.8H183v9h12v3H183v8.8Z" fill="#1b2856"/>
      <path id="Path_45" data-name="Path 45" d="M258.6,312.8h-3.3V289.3h-8.4v-2.8h20v2.7h-8.3C258.6,297.1,258.6,304.8,258.6,312.8Z" fill="#1b2856"/>
      <path id="Path_46" data-name="Path 46" d="M60.8,312.7H57.5V286.1h3.3Z" fill="#1b2856"/>
      <path id="Path_47" data-name="Path 47" d="M279.6,286.1h3.3v26.6h-3.3Z" fill="#1b2856"/>
    </g>
  </g>
</svg>
