<svg xmlns="http://www.w3.org/2000/svg" width="161.5" height="25.077" viewBox="0 0 161.5 25.077"><defs><style>.a{fill:#fff;font-size:18px;font-family:OpenSans-Semibold, Open Sans;font-weight:600;letter-spacing:0.08em;}.b{fill:#d9dce5;stroke:rgba(0,0,0,0);}</style></defs><g transform="translate(-29.5 -20.429)"><text class="a" transform="translate(72 40)"><tspan x="0" y="0">INSPECTION</tspan></text><g transform="translate(-119.066 -596.68)"><g transform="translate(149.067 617.68)"><g transform="translate(0 0)"><path class="b" d="M178.066,376.129c-.3-1.156-.177-1.482.871-2.243.252-.183.658-.248.615-.708,0-.037.172-.1.269-.137.736-.3,1.471-.61,2.21-.907,1.53-.615,3.051-1.254,4.6-1.82a5.342,5.342,0,0,1,1.629-.246,29.662,29.662,0,0,1,7.915.526c1.707.4,3.072,1.511,4.557,2.366l-.019.173h-6.449l-.006.15.578.19-.014.068c-.25-.039-.5-.09-.75-.115-.723-.073-1.449-.118-2.169-.212a1.137,1.137,0,0,1-.62-.286c-.678-.677-1.325-1.384-2.006-2.1a31.622,31.622,0,0,1,6.541.012c-1.206-.468-5.268-.689-8.206-.4-2.829.283-5.09,2.088-7.759,2.962l.218.132a5.945,5.945,0,0,0-1.457,1.051A4.806,4.806,0,0,0,178.066,376.129Z" transform="translate(-172.012 -365.132)"/><path class="b" d="M147.493,382.745c-.538,0-1.085.011-1.63-.009a.436.436,0,0,1-.32-.2,8.765,8.765,0,0,1-.693-6.565c.026-.081.064-.158.119-.294l2.96,1.457a.782.782,0,0,1-.138.045c-.912-.074-.92-.057-1.011.879a8.864,8.864,0,0,0,.589,4.132c.051.132.1.265.144.4C147.523,382.618,147.505,382.657,147.493,382.745Z" transform="translate(-142.148 -370.179)"/><path class="b" d="M232.493,380.491c-.751.141-1.263.167-1.522-.554-.133-.372-1.508-.365-1.673,0-.067.149.074.392.125.614-1.556,0-3.155.008-4.753-.014a.515.515,0,0,1-.387-.315c-.025-.251-.02-.65.132-.752a9.928,9.928,0,0,1,4-1.676,1.994,1.994,0,0,1,1.783.506C230.932,379.013,231.676,379.714,232.493,380.491Z" transform="translate(-213.401 -372.044)"/><path class="b" d="M152.478,340.2l-2.111-1.05A5.515,5.515,0,0,1,152.6,336.5a22.651,22.651,0,0,1,2.9-1.314.638.638,0,0,1,.563.12,17.636,17.636,0,0,1,1.589,1.829,1.012,1.012,0,0,1-.286-.125,1.226,1.226,0,0,0-1.5-.1A6.567,6.567,0,0,0,152.478,340.2Z" transform="translate(-147.4 -334.001)"/><path class="b" d="M396.647,408.543l-.355-.446a27.1,27.1,0,0,1-8.459-.237l3.586.24-.874-1.261.074-.176h5.448l.063-.222c-.675-1.292-1.994-1.626-3.283-2.048a5.981,5.981,0,0,1,3.043,1.068c1.044.791.628,1.978.892,2.98Z" transform="translate(-359.469 -395.82)"/><path class="b" d="M137.3,324.413c-2.815.58-5.245,1.756-6.577,4.468-1.308,2.664-.844,5.316.267,7.92a.769.769,0,0,1-1.107-.558,9.4,9.4,0,0,1-.453-6.306c.924-2.9,3.089-4.458,5.9-5.254.626-.177,1.277-.267,1.916-.4Z" transform="translate(-128.38 -324.285)"/><path class="b" d="M205.663,331.916c.468-.069.812-.145,1.16-.167a17.564,17.564,0,0,1,5.862.573.772.772,0,0,1,.392.441,2.331,2.331,0,0,1,.093.684,2.513,2.513,0,0,1-.03.57c-.306-.926-1.136-.811-1.782-.849-1.288-.075-2.585-.012-3.877.03-.353.012-.643.044-.89-.287A12.514,12.514,0,0,0,205.663,331.916Z" transform="translate(-196.782 -330.914)"/><path class="b" d="M360.3,421.076l5.325.38.71,1.3c-1.052-.085-2.073-.162-3.093-.253-.443-.039-.885-.093-1.324-.165A2.26,2.26,0,0,1,360.3,421.076Z" transform="translate(-334.882 -410.724)"/><path class="b" d="M177.214,490.611a3.642,3.642,0,0,1,.982.447,23.318,23.318,0,0,0,11.391,5.681c.049.009.1.029.173.053-2.685.394-10.177-3.171-12.625-5.986Z" transform="translate(-171.305 -472.822)"/><path class="b" d="M279.072,339.712a21.728,21.728,0,0,1,6.034,2.942,6.988,6.988,0,0,1-2.527-.558,20.653,20.653,0,0,0-2.757-1.123C279,340.675,278.994,340.7,279.072,339.712Z" transform="translate(-262.312 -338.062)"/><path class="b" d="M195.31,491.719a2.763,2.763,0,0,1,2.484.634,19.339,19.339,0,0,0,2.32,1.691c-.47.646-.64.712-1.285.29-1.216-.8-2.408-1.629-3.61-2.447Z" transform="translate(-187.455 -473.771)"/><path class="b" d="M237.863,513.191l1.308-1,.061.048-.272.481a19.209,19.209,0,0,0,4.777,1.857l-.192.642A21.348,21.348,0,0,1,237.863,513.191Z" transform="translate(-225.538 -492.096)"/><path class="b" d="M301.212,530.383a15.213,15.213,0,0,1-6.68.194l.395-1.3.073.01c.008.1.016.195.023.292s.012.211.022.388c.479.076.96.194,1.447.223a12.36,12.36,0,0,0,4.128-.27C301.017,529.8,301.126,530.008,301.212,530.383Z" transform="translate(-276.146 -507.349)"/><path class="b" d="M356.376,514.444c.452.53.925.272,1.339-.008a14.372,14.372,0,0,0,1.859-1.415,1.151,1.151,0,0,1,1.23-.237c-.653.593-1.174,1.145-1.774,1.589a13.342,13.342,0,0,1-1.63.9c-.379.2-.666.2-.79-.3A3.366,3.366,0,0,0,356.376,514.444Z" transform="translate(-331.376 -492.564)"/><path class="b" d="M312.458,416.327c-1.237-2.544-2.65-2.37-3.891-1.47a1.844,1.844,0,0,1,1.892-1.015A2.769,2.769,0,0,1,312.458,416.327Z" transform="translate(-288.68 -404.25)"/><path class="b" d="M188.227,419.038c.573-.781,1.292-.713,1.715.216A1.181,1.181,0,0,0,188.227,419.038Z" transform="translate(-181.211 -408.424)"/><path class="b" d="M9.3-103.262V-106a.37.37,0,0,0-.412-.416l-.412.007a.374.374,0,0,0-.412.426c0,.265.134.4.412.4v2.323a.369.369,0,0,0,.416.419A.367.367,0,0,0,9.3-103.262Zm-.436-4.251a.408.408,0,0,0-.409.409.414.414,0,0,0,.409.406.414.414,0,0,0,.409-.406A.408.408,0,0,0,8.868-107.514Zm2.1,4.671a.369.369,0,0,0,.419-.416v-2.327h.962a.373.373,0,0,1,.419.423v1.907a.368.368,0,0,0,.412.419.365.365,0,0,0,.412-.412v-1.9a1.106,1.106,0,0,0-1.237-1.265l-1.382,0a.361.361,0,0,0-.412.406v2.743A.362.362,0,0,0,10.964-102.843ZM17.589-106a.363.363,0,0,0-.412-.409h-1.1q-1.237,0-1.23,1.086,0,1.114,1.244,1.11h.268c.272,0,.406.1.406.278s-.144.278-.416.278h-1.11c-.265,0-.4.148-.4.433a.346.346,0,0,0,.4.378l1.114,0c.815,0,1.224-.368,1.227-1.1s-.406-1.086-1.227-1.1h-.268c-.282,0-.423-.089-.423-.265s.141-.278.419-.278h1.1A.37.37,0,0,0,17.589-106Zm1.254.282v3.853a.363.363,0,0,0,.412.409.368.368,0,0,0,.412-.419v-.687h.969a1.106,1.106,0,0,0,1.237-1.265V-104.9a1.1,1.1,0,0,0-1.244-1.237H19.249A.365.365,0,0,0,18.843-105.72Zm1.787.409c.278,0,.419.134.419.4v1.1a.374.374,0,0,1-.419.426h-.962v-1.921Zm5.12,1.653-1.382,0a.372.372,0,0,1-.419-.419v-.137l1.244,0a.356.356,0,0,0,.409-.4.378.378,0,0,0-.419-.426l-1.234.007v-.55h1.78a.374.374,0,0,0,.423-.409c0-.275-.144-.412-.433-.409H23.537a.365.365,0,0,0-.412.412v1.9a1.106,1.106,0,0,0,1.237,1.265h1.382a.361.361,0,0,0,.412-.406A.362.362,0,0,0,25.751-103.657Zm4.282,0-1.382,0a.372.372,0,0,1-.419-.419v-1.079q0-.433.4-.433h1.378a.374.374,0,0,0,.423-.409c0-.275-.144-.412-.433-.409H28.644a1.1,1.1,0,0,0-1.237,1.248v1.062a1.106,1.106,0,0,0,1.237,1.265h1.382a.361.361,0,0,0,.412-.406A.362.362,0,0,0,30.032-103.657Zm3.182,0-.282,0a.372.372,0,0,1-.419-.419v-1.512H33.2a.37.37,0,0,0,.419-.409c0-.275-.144-.412-.433-.409l-.67,0v-.409a.359.359,0,0,0-.412-.412.365.365,0,0,0-.412.412v2.722a1.106,1.106,0,0,0,1.237,1.265h.282a.361.361,0,0,0,.412-.406A.362.362,0,0,0,33.214-103.657Zm2.886.4V-106a.37.37,0,0,0-.412-.416l-.412.007a.374.374,0,0,0-.412.426c0,.265.134.4.412.4v2.323a.369.369,0,0,0,.416.419A.367.367,0,0,0,36.1-103.262Zm-.436-4.251a.408.408,0,0,0-.409.409.414.414,0,0,0,.409.406.414.414,0,0,0,.409-.406A.408.408,0,0,0,35.664-107.514Zm1.69,2.34v1.093a1.09,1.09,0,0,0,1.23,1.237h.564a1.106,1.106,0,0,0,1.237-1.265v-1.069a1.1,1.1,0,0,0-1.244-1.241H38.6A1.1,1.1,0,0,0,37.355-105.173Zm1.787-.412c.278,0,.419.134.419.4v1.1a.373.373,0,0,1-.419.423h-.557c-.272,0-.406-.141-.406-.423v-1.086a.36.36,0,0,1,.406-.409Zm2.9,2.743a.369.369,0,0,0,.419-.416v-2.327h.962a.373.373,0,0,1,.419.423v1.907a.368.368,0,0,0,.412.419.365.365,0,0,0,.412-.412v-1.9a1.106,1.106,0,0,0-1.237-1.265l-1.382,0a.361.361,0,0,0-.412.406v2.743A.362.362,0,0,0,42.042-102.843Z" transform="translate(-8.067 119.67)"/></g></g></g></g></svg>